<?xml version="1.0" standalone="no"?>
<!DOCTYPE svg PUBLIC "-//W3C//DTD SVG 20010904//EN"
 "http://www.w3.org/TR/2001/REC-SVG-20010904/DTD/svg10.dtd">
<svg version="1.0" xmlns="http://www.w3.org/2000/svg"
 width="126.000000pt" height="126.000000pt" viewBox="0 0 126.000000 126.000000"
 preserveAspectRatio="xMidYMid meet">
<metadata>
Created by potrace 1.11, written by Peter Selinger 2001-2013
</metadata>
<g transform="translate(0.000000,126.000000) scale(0.100000,-0.100000)"
fill="#000000" stroke="none">
<path d="M37 1153 c-3 -5 -5 -33 -7 -63 -3 -96 -7 -172 -14 -257 -5 -51 -3
-83 2 -83 6 0 40 -18 78 -40 38 -22 73 -41 78 -43 5 -2 -1 -17 -13 -34 -45
-60 -43 -157 4 -255 32 -66 31 -72 -5 -98 -46 -33 -56 -58 -33 -82 20 -19 20
-19 61 21 23 23 45 41 49 41 4 0 30 -16 57 -35 26 -19 72 -39 101 -46 47 -10
57 -9 91 7 65 32 79 62 79 165 0 77 2 88 16 84 16 -5 56 21 94 61 22 23 71 36
68 18 -1 -5 -5 -46 -8 -90 l-7 -79 104 -54 c57 -30 119 -63 138 -74 86 -48
220 -118 221 -115 6 23 9 50 24 183 5 43 12 101 30 231 4 30 2 31 -132 101
l-137 71 -1 74 c-1 63 -5 82 -35 136 -76 142 -217 205 -306 137 -41 -31 -53
-58 -63 -137 -1 -3 -14 -11 -30 -16 -23 -8 -33 -20 -41 -49 -5 -21 -22 -46
-36 -57 l-26 -18 5 94 c5 81 4 95 -11 104 -68 42 -391 203 -395 197z m749
-145 c24 -11 56 -35 71 -52 25 -28 26 -29 3 -11 -14 11 -27 23 -30 26 -3 3
-22 12 -43 20 -29 10 -44 11 -67 2 -25 -9 -33 -8 -46 4 -36 37 45 45 112 11z
m-119 -24 c3 -8 -4 -28 -16 -44 -11 -16 -21 -34 -21 -40 0 -5 -4 -10 -10 -10
-14 0 -12 66 2 90 15 24 36 26 45 4z m262 -145 c24 -68 18 -150 -9 -123 -6 6
-6 22 -1 39 10 36 5 76 -15 124 -8 20 -10 31 -4 25 5 -5 19 -35 29 -65z"/>
</g>
</svg>
